# xmcd
#
# Track frame offsets:
#	150
#	7425
#	31212
#	46530
#	61789
#	84267
#	109947
#	131397
#	148072
#	166123
#	192837
#	226808
#	251718
#	282615
#	305336
#
# Disc length: 4692 seconds
#
# Revision: 0
# Processed by: cddbd v1.5.1PL2 Copyright (c) Steve Scherf et al.
# Submitted via: EasyCDDAExtractor 8.1.2.3
#
DISCID=c412520f
DTITLE=Rohff - Au dela de mes limites
DYEAR=2005
DGENRE=Rap
TTITLE0=Intro
TTITLE1=Seul contre tous
TTITLE2=En mode
TTITLE3=En mode 2
TTITLE4=La violence
TTITLE5=Accepte moi comme je suis
TTITLE6=Le club des metaphores
TTITLE7=Trop dangereux
TTITLE8=Bonhomme
TTITLE9=J't'ai pas attendu
TTITLE10=Bonne journee
TTITLE11=Toujours
TTITLE12=Encule de ton clash
TTITLE13=Fumer un mec
TTITLE14=Regrette
EXTD=
EXTT0=
EXTT1=
EXTT2=
EXTT3=
EXTT4=
EXTT5=
EXTT6=
EXTT7=
EXTT8=
EXTT9=
EXTT10=
EXTT11=
EXTT12=
EXTT13=
EXTT14=
PLAYORDER=
